<svg width="26" height="26" viewBox="0 0 26 26" fill="none" xmlns="http://www.w3.org/2000/svg">
<path d="M19.5 17.0625C19.5 18.9402 18.841 20.5382 17.523 21.8562C16.2049 23.1743 14.607 23.8333 12.7292 23.8333C10.8514 23.8333 9.25351 23.1743 7.93546 21.8562C6.6174 20.5382 5.95837 18.9402 5.95837 17.0625V7.04163C5.95837 5.68746 6.43233 4.53642 7.38025 3.5885C8.32817 2.64058 9.47921 2.16663 10.8334 2.16663C12.1875 2.16663 13.3386 2.64058 14.2865 3.5885C15.2344 4.53642 15.7084 5.68746 15.7084 7.04163V16.5208C15.7084 17.3513 15.4195 18.0555 14.8417 18.6333C14.2639 19.2111 13.5598 19.5 12.7292 19.5C11.8987 19.5 11.1945 19.2111 10.6167 18.6333C10.0389 18.0555 9.75004 17.3513 9.75004 16.5208V6.49996H11.9167V16.5208C11.9167 16.7555 11.9934 16.9496 12.1469 17.1031C12.3004 17.2566 12.4945 17.3333 12.7292 17.3333C12.9639 17.3333 13.158 17.2566 13.3115 17.1031C13.465 16.9496 13.5417 16.7555 13.5417 16.5208V7.04163C13.5237 6.28329 13.2573 5.64232 12.7427 5.11871C12.2282 4.5951 11.5917 4.33329 10.8334 4.33329C10.075 4.33329 9.43407 4.5951 8.91046 5.11871C8.38685 5.64232 8.12504 6.28329 8.12504 7.04163V17.0625C8.10699 18.3444 8.54935 19.4322 9.45212 20.326C10.3549 21.2197 11.4473 21.6666 12.7292 21.6666C13.9931 21.6666 15.0674 21.2197 15.9521 20.326C16.8368 19.4322 17.2973 18.3444 17.3334 17.0625V6.49996H19.5V17.0625Z" fill="#F1F1F2"/>
</svg>
