<svg width="289" height="59" viewBox="0 0 289 59" fill="none" xmlns="http://www.w3.org/2000/svg">
<path d="M109.34 46H102.59L114.88 11.0909H122.687L134.994 46H128.244L118.92 18.25H118.647L109.34 46ZM109.562 32.3125H127.971V37.392H109.562V32.3125ZM148.238 46.4602C146.181 46.4602 144.34 45.9318 142.715 44.875C141.09 43.8182 139.806 42.2841 138.863 40.2727C137.92 38.2614 137.448 35.8182 137.448 32.9432C137.448 30.0341 137.925 27.5795 138.88 25.5795C139.846 23.5682 141.147 22.0511 142.783 21.0284C144.42 19.9943 146.244 19.4773 148.255 19.4773C149.789 19.4773 151.05 19.7386 152.039 20.2614C153.028 20.7727 153.812 21.392 154.391 22.1193C154.971 22.8352 155.42 23.5114 155.738 24.1477H155.994V11.0909H162.181V46H156.113V41.875H155.738C155.42 42.5114 154.96 43.1875 154.357 43.9034C153.755 44.608 152.96 45.2102 151.971 45.7102C150.982 46.2102 149.738 46.4602 148.238 46.4602ZM149.96 41.3977C151.266 41.3977 152.38 41.0455 153.3 40.3409C154.221 39.625 154.92 38.6307 155.397 37.358C155.874 36.0852 156.113 34.6023 156.113 32.9091C156.113 31.2159 155.874 29.7443 155.397 28.4943C154.931 27.2443 154.238 26.2727 153.317 25.5795C152.408 24.8864 151.289 24.5398 149.96 24.5398C148.585 24.5398 147.437 24.8977 146.516 25.6136C145.596 26.3295 144.903 27.3182 144.437 28.5795C143.971 29.8409 143.738 31.2841 143.738 32.9091C143.738 34.5455 143.971 36.0057 144.437 37.2898C144.914 38.5625 145.613 39.5682 146.533 40.3068C147.465 41.0341 148.607 41.3977 149.96 41.3977ZM176.29 46.5284C174.631 46.5284 173.137 46.233 171.808 45.642C170.489 45.0398 169.444 44.1534 168.671 42.983C167.91 41.8125 167.529 40.3693 167.529 38.6534C167.529 37.1761 167.802 35.9545 168.347 34.9886C168.893 34.0227 169.637 33.25 170.58 32.6705C171.523 32.0909 172.586 31.6534 173.768 31.358C174.961 31.0511 176.194 30.8295 177.467 30.6932C179.001 30.5341 180.245 30.392 181.2 30.267C182.154 30.1307 182.847 29.9261 183.279 29.6534C183.722 29.3693 183.944 28.9318 183.944 28.3409V28.2386C183.944 26.9545 183.563 25.9602 182.802 25.2557C182.04 24.5511 180.944 24.1989 179.512 24.1989C178.001 24.1989 176.802 24.5284 175.915 25.1875C175.04 25.8466 174.45 26.625 174.143 27.5227L168.381 26.7045C168.836 25.1136 169.586 23.7841 170.631 22.7159C171.677 21.6364 172.955 20.8295 174.467 20.2955C175.978 19.75 177.648 19.4773 179.478 19.4773C180.739 19.4773 181.995 19.625 183.245 19.9205C184.495 20.2159 185.637 20.7045 186.671 21.3864C187.705 22.0568 188.535 22.9716 189.16 24.1307C189.796 25.2898 190.114 26.7386 190.114 28.4773V46H184.183V42.4034H183.978C183.603 43.1307 183.075 43.8125 182.393 44.4489C181.722 45.0739 180.876 45.5795 179.853 45.9659C178.842 46.3409 177.654 46.5284 176.29 46.5284ZM177.893 41.9943C179.131 41.9943 180.205 41.75 181.114 41.2614C182.023 40.7614 182.722 40.1023 183.211 39.2841C183.711 38.4659 183.961 37.5739 183.961 36.608V33.5227C183.768 33.6818 183.438 33.8295 182.972 33.9659C182.518 34.1023 182.006 34.2216 181.438 34.3239C180.87 34.4261 180.308 34.517 179.751 34.5966C179.194 34.6761 178.711 34.7443 178.302 34.8011C177.381 34.9261 176.558 35.1307 175.83 35.4148C175.103 35.6989 174.529 36.0966 174.109 36.608C173.688 37.108 173.478 37.7557 173.478 38.5511C173.478 39.6875 173.893 40.5455 174.722 41.125C175.552 41.7045 176.609 41.9943 177.893 41.9943ZM196.319 55.8182V19.8182H202.387V24.1477H202.745C203.063 23.5114 203.512 22.8352 204.092 22.1193C204.671 21.392 205.455 20.7727 206.444 20.2614C207.433 19.7386 208.694 19.4773 210.228 19.4773C212.251 19.4773 214.075 19.9943 215.7 21.0284C217.336 22.0511 218.631 23.5682 219.586 25.5795C220.552 27.5795 221.035 30.0341 221.035 32.9432C221.035 35.8182 220.563 38.2614 219.62 40.2727C218.677 42.2841 217.393 43.8182 215.768 44.875C214.143 45.9318 212.302 46.4602 210.245 46.4602C208.745 46.4602 207.501 46.2102 206.512 45.7102C205.523 45.2102 204.728 44.608 204.126 43.9034C203.535 43.1875 203.075 42.5114 202.745 41.875H202.489V55.8182H196.319ZM202.37 32.9091C202.37 34.6023 202.609 36.0852 203.086 37.358C203.575 38.6307 204.273 39.625 205.183 40.3409C206.103 41.0455 207.217 41.3977 208.523 41.3977C209.887 41.3977 211.029 41.0341 211.95 40.3068C212.87 39.5682 213.563 38.5625 214.029 37.2898C214.506 36.0057 214.745 34.5455 214.745 32.9091C214.745 31.2841 214.512 29.8409 214.046 28.5795C213.58 27.3182 212.887 26.3295 211.967 25.6136C211.046 24.8977 209.898 24.5398 208.523 24.5398C207.205 24.5398 206.086 24.8864 205.165 25.5795C204.245 26.2727 203.546 27.2443 203.069 28.4943C202.603 29.7443 202.37 31.2159 202.37 32.9091ZM239.393 19.8182V24.5909H224.342V19.8182H239.393ZM228.058 13.5455H234.228V38.125C234.228 38.9545 234.353 39.5909 234.603 40.0341C234.864 40.4659 235.205 40.7614 235.626 40.9205C236.046 41.0795 236.512 41.1591 237.023 41.1591C237.41 41.1591 237.762 41.1307 238.08 41.0739C238.41 41.017 238.66 40.9659 238.83 40.9205L239.87 45.7443C239.54 45.858 239.069 45.983 238.455 46.1193C237.853 46.2557 237.114 46.3352 236.239 46.358C234.694 46.4034 233.302 46.1705 232.063 45.6591C230.825 45.1364 229.842 44.3295 229.114 43.2386C228.398 42.1477 228.046 40.7841 228.058 39.1477V13.5455ZM255.863 46.5114C253.238 46.5114 250.971 45.9659 249.062 44.875C247.164 43.7727 245.704 42.2159 244.681 40.2045C243.658 38.1818 243.147 35.8011 243.147 33.0625C243.147 30.3693 243.658 28.0057 244.681 25.9716C245.715 23.9261 247.158 22.3352 249.011 21.1989C250.863 20.0511 253.039 19.4773 255.539 19.4773C257.153 19.4773 258.675 19.7386 260.107 20.2614C261.55 20.7727 262.823 21.5682 263.925 22.6477C265.039 23.7273 265.914 25.1023 266.55 26.7727C267.187 28.4318 267.505 30.4091 267.505 32.7045V34.5966H246.045V30.4375H261.59C261.579 29.2557 261.323 28.2045 260.823 27.2841C260.323 26.3523 259.624 25.6193 258.727 25.0852C257.84 24.5511 256.806 24.2841 255.624 24.2841C254.363 24.2841 253.255 24.5909 252.3 25.2045C251.346 25.8068 250.602 26.6023 250.067 27.5909C249.545 28.5682 249.278 29.642 249.266 30.8125V34.4432C249.266 35.9659 249.545 37.2727 250.102 38.3636C250.658 39.4432 251.437 40.2727 252.437 40.8523C253.437 41.4205 254.607 41.7045 255.948 41.7045C256.846 41.7045 257.658 41.5795 258.386 41.3295C259.113 41.0682 259.744 40.6875 260.278 40.1875C260.812 39.6875 261.215 39.0682 261.488 38.3295L267.249 38.9773C266.886 40.5 266.192 41.8295 265.17 42.9659C264.158 44.0909 262.863 44.9659 261.283 45.5909C259.704 46.2045 257.897 46.5114 255.863 46.5114ZM272.725 46V19.8182H278.708V24.1818H278.981C279.458 22.6705 280.276 21.5057 281.435 20.6875C282.606 19.858 283.941 19.4432 285.441 19.4432C285.782 19.4432 286.163 19.4602 286.583 19.4943C287.015 19.517 287.373 19.5568 287.657 19.6136V25.2898C287.396 25.1989 286.981 25.1193 286.413 25.0511C285.856 24.9716 285.316 24.9318 284.793 24.9318C283.668 24.9318 282.657 25.1761 281.759 25.6648C280.873 26.142 280.174 26.8068 279.663 27.6591C279.151 28.5114 278.896 29.4943 278.896 30.608V46H272.725Z" fill="url(#paint0_linear_50_21)"/>
<path d="M35.6667 49.3254C28.6667 49.3254 28.6667 44.6508 12.3333 43.8486V4.91692C21.6667 2.57968 26.3333 4.91685 35.6667 9.59149V49.3254ZM35.6667 49.3254C21.6667 49.3254 10 49.3254 3 54V7.25418C3 4.91689 12.3333 7.25415 12.3333 7.25415M63.6667 7.25418C63.6667 7.25418 73 4.91689 73 7.25418V54C66 49.3254 52 49.3253 38 49.3253M40.3333 9.59131C49.6667 4.91676 54.3333 2.5797 63.6667 4.91695V44.6509C47.3333 44.6509 47.3333 49.3255 40.3333 49.3253V9.59131Z" stroke="url(#paint1_linear_50_21)" stroke-width="5"/>
<defs>
<linearGradient id="paint0_linear_50_21" x1="195" y1="0" x2="195" y2="58" gradientUnits="userSpaceOnUse">
<stop stop-color="#C7CBD1"/>
<stop offset="1" stop-color="#70757F"/>
</linearGradient>
<linearGradient id="paint1_linear_50_21" x1="38" y1="4" x2="38" y2="54" gradientUnits="userSpaceOnUse">
<stop stop-color="#C7CBD1"/>
<stop offset="1" stop-color="#70757F"/>
</linearGradient>
</defs>
</svg>
