<svg width="56" height="44" viewBox="0 0 56 44" fill="none" xmlns="http://www.w3.org/2000/svg">
<path d="M26.3333 35.6343C21.3333 35.6343 21.3333 32.2686 9.66667 31.691V3.66018C16.3333 1.97737 19.6667 3.66013 26.3333 7.02588V35.6343ZM26.3333 35.6343C16.3333 35.6343 8 35.6343 3 39V5.34301C3 3.66016 9.66667 5.34299 9.66667 5.34299M46.3333 5.34301C46.3333 5.34301 53 3.66016 53 5.34301V39C48 35.6343 38 35.6342 28 35.6342M29.6667 7.02574C36.3333 3.66007 39.6667 1.97738 46.3333 3.66021V32.2686C34.6667 32.2686 34.6667 35.6343 29.6667 35.6342V7.02574Z" stroke="url(#paint0_linear_50_45)" stroke-width="5"/>
<defs>
<linearGradient id="paint0_linear_50_45" x1="28" y1="3" x2="28" y2="39" gradientUnits="userSpaceOnUse">
<stop stop-color="#C7CBD1"/>
<stop offset="1" stop-color="#70757F"/>
</linearGradient>
</defs>
</svg>
