<svg width="76" height="58" viewBox="0 0 76 58" fill="none" xmlns="http://www.w3.org/2000/svg">
<path d="M35.6667 48.3254C28.6667 48.3254 28.6667 43.6508 12.3333 42.8486V3.91692C21.6667 1.57968 26.3333 3.91685 35.6667 8.59149V48.3254ZM35.6667 48.3254C21.6667 48.3254 10 48.3254 3 53V6.25418C3 3.91689 12.3333 6.25415 12.3333 6.25415M63.6667 6.25418C63.6667 6.25418 73 3.91689 73 6.25418V53C66 48.3254 52 48.3253 38 48.3253M40.3333 8.59131C49.6667 3.91676 54.3333 1.5797 63.6667 3.91695V43.6509C47.3333 43.6509 47.3333 48.3255 40.3333 48.3253V8.59131Z" stroke="url(#paint0_linear_11_32)" stroke-width="5"/>
<defs>
<linearGradient id="paint0_linear_11_32" x1="38" y1="3" x2="38" y2="53" gradientUnits="userSpaceOnUse">
<stop stop-color="#C7CBD1"/>
<stop offset="1" stop-color="#70757F"/>
</linearGradient>
</defs>
</svg>
